<svg width="21" height="16" viewBox="0 0 21 16" fill="none" xmlns="http://www.w3.org/2000/svg">
<path d="M17.2566 1.55949C16.013 0.981277 14.6832 0.561056 13.293 0.321777C13.1222 0.628523 12.9227 1.0411 12.7852 1.36931C11.3074 1.14846 9.8431 1.14846 8.39242 1.36931C8.25492 1.0411 8.05092 0.628523 7.87865 0.321777C6.48691 0.561056 5.15562 0.982821 3.91197 1.56255C1.40352 5.32932 0.723519 9.00253 1.06352 12.6236C2.72726 13.8582 4.33962 14.6082 5.92477 15.099C6.31615 14.5637 6.66521 13.9947 6.96592 13.395C6.39321 13.1788 5.84468 12.9119 5.32638 12.6021C5.46388 12.5009 5.59838 12.3951 5.72833 12.2862C8.88957 13.7555 12.3243 13.7555 15.4478 12.2862C15.5793 12.3951 15.7138 12.5009 15.8498 12.6021C15.3299 12.9134 14.7799 13.1803 14.2072 13.3966C14.5079 13.9947 14.8555 14.5653 15.2483 15.1005C16.835 14.6097 18.4489 13.8597 20.1126 12.6236C20.5116 8.42586 19.4311 4.78638 17.2566 1.55949ZM7.39659 10.3967C6.44762 10.3967 5.66938 9.51631 5.66938 8.44425C5.66938 7.3722 6.431 6.49033 7.39659 6.49033C8.36221 6.49033 9.14042 7.37066 9.1238 8.44425C9.1253 9.51631 8.36221 10.3967 7.39659 10.3967ZM13.7795 10.3967C12.8306 10.3967 12.0523 9.51631 12.0523 8.44425C12.0523 7.3722 12.8139 6.49033 13.7795 6.49033C14.7451 6.49033 15.5234 7.37066 15.5068 8.44425C15.5068 9.51631 14.7451 10.3967 13.7795 10.3967Z" fill="#50677D"/>
</svg>
