<svg width="21" height="16" viewBox="0 0 21 16" fill="none" xmlns="http://www.w3.org/2000/svg">
<path fill-rule="evenodd" clip-rule="evenodd" d="M16.1504 7.48933V7.48895L10.7788 11.5176L5.40605 7.48806V7.48933L0.928711 4.13133V2.34039C0.928711 0.679298 2.82263 -0.26766 4.1524 0.728548L5.40601 1.66876V1.66748L10.7788 5.69709L16.1516 1.66748V1.66787L17.404 0.728548C18.7316 -0.26766 20.6277 0.679298 20.6277 2.34039V4.13133L16.1504 7.48933ZM2.27191 15.1018H5.40605V7.49033L0.928711 4.13232V13.7586C0.928711 14.5018 1.53091 15.1018 2.27191 15.1018ZM16.1504 15.1018H19.2845C20.0278 15.1018 20.6277 14.4996 20.6277 13.7586V4.13232L16.1504 7.49033V15.1018Z" fill="#50677D"/>
</svg>
