<svg width="93" height="62" viewBox="0 0 93 62" fill="none" xmlns="http://www.w3.org/2000/svg">
<rect x="0.5" y="0.5" width="92" height="61" rx="11.5" fill="#1A1C1F"/>
<rect x="0.5" y="0.5" width="92" height="61" rx="11.5" stroke="#292C31"/>
<rect x="0.5" y="0.5" width="92" height="61" rx="11.5" stroke="url(#paint0_linear_1_1749)"/>
<path d="M17.3268 42V26.642C17.3268 26.2593 17.3408 25.8393 17.3688 25.382C17.3968 24.9153 17.4761 24.4533 17.6068 23.996C17.7374 23.5387 17.9754 23.1233 18.3208 22.75C18.7501 22.274 19.2121 21.9473 19.7068 21.77C20.2108 21.5833 20.7054 21.4807 21.1908 21.462C21.6761 21.434 22.1008 21.42 22.4648 21.42H24.3548V24.164H22.6048C21.9608 24.164 21.4801 24.3273 21.1628 24.654C20.8548 24.9713 20.7008 25.3913 20.7008 25.914V42H17.3268ZM14.8908 29.526V26.88H24.3548V29.526H14.8908Z" fill="#26E5A1"/>
<path d="M30.4107 42.42C29.3187 42.42 28.3947 42.2147 27.6387 41.804C26.8827 41.384 26.3087 40.8287 25.9167 40.138C25.534 39.4473 25.3427 38.6867 25.3427 37.856C25.3427 37.128 25.464 36.4747 25.7067 35.896C25.9493 35.308 26.3227 34.804 26.8267 34.384C27.3307 33.9547 27.984 33.6047 28.7867 33.334C29.3933 33.138 30.1027 32.9607 30.9147 32.802C31.736 32.6433 32.6227 32.4987 33.5747 32.368C34.536 32.228 35.5393 32.0787 36.5847 31.92L35.3807 32.606C35.39 31.5607 35.1567 30.7907 34.6807 30.296C34.2047 29.8013 33.402 29.554 32.2727 29.554C31.5913 29.554 30.9333 29.7127 30.2987 30.03C29.664 30.3473 29.2207 30.8933 28.9687 31.668L25.8887 30.702C26.262 29.4233 26.9713 28.3967 28.0167 27.622C29.0713 26.8473 30.49 26.46 32.2727 26.46C33.6167 26.46 34.7973 26.6793 35.8147 27.118C36.8413 27.5567 37.602 28.2753 38.0967 29.274C38.3673 29.806 38.5307 30.352 38.5867 30.912C38.6427 31.4627 38.6707 32.0647 38.6707 32.718V42H35.7167V38.724L36.2067 39.256C35.5253 40.348 34.7273 41.1507 33.8127 41.664C32.9073 42.168 31.7733 42.42 30.4107 42.42ZM31.0827 39.732C31.848 39.732 32.5013 39.5967 33.0427 39.326C33.584 39.0553 34.0133 38.724 34.3307 38.332C34.6573 37.94 34.8767 37.5713 34.9887 37.226C35.166 36.7967 35.264 36.3067 35.2827 35.756C35.3107 35.196 35.3247 34.7433 35.3247 34.398L36.3607 34.706C35.3433 34.8647 34.4707 35.0047 33.7427 35.126C33.0147 35.2473 32.3893 35.364 31.8667 35.476C31.344 35.5787 30.882 35.6953 30.4807 35.826C30.0887 35.966 29.7573 36.1293 29.4867 36.316C29.216 36.5027 29.006 36.7173 28.8567 36.96C28.7167 37.2027 28.6467 37.4873 28.6467 37.814C28.6467 38.1873 28.74 38.5187 28.9267 38.808C29.1133 39.088 29.384 39.312 29.7387 39.48C30.1027 39.648 30.5507 39.732 31.0827 39.732ZM42.2875 42L42.3155 21.84H45.7315V34.16L51.2615 26.88H55.4755L49.6095 34.44L55.9795 42H51.5135L45.7315 34.72V42H42.2875ZM63.9824 42.42C62.4518 42.42 61.1078 42.0887 59.9504 41.426C58.7931 40.7633 57.8878 39.844 57.2344 38.668C56.5904 37.492 56.2684 36.1387 56.2684 34.608C56.2684 32.956 56.5858 31.5233 57.2204 30.31C57.8551 29.0873 58.7371 28.14 59.8664 27.468C60.9958 26.796 62.3024 26.46 63.7864 26.46C65.3544 26.46 66.6844 26.8287 67.7764 27.566C68.8778 28.294 69.6944 29.3253 70.2264 30.66C70.7584 31.9947 70.9591 33.5673 70.8284 35.378H67.4824V34.146C67.4731 32.5033 67.1838 31.304 66.6144 30.548C66.0451 29.792 65.1491 29.414 63.9264 29.414C62.5451 29.414 61.5184 29.8433 60.8464 30.702C60.1744 31.5513 59.8384 32.7973 59.8384 34.44C59.8384 35.9707 60.1744 37.156 60.8464 37.996C61.5184 38.836 62.4984 39.256 63.7864 39.256C64.6171 39.256 65.3311 39.074 65.9284 38.71C66.5351 38.3367 67.0018 37.8 67.3284 37.1L70.6604 38.108C70.0818 39.4707 69.1858 40.53 67.9724 41.286C66.7684 42.042 65.4384 42.42 63.9824 42.42ZM58.7744 35.378V32.83H69.1764V35.378H58.7744ZM73.9653 42V38.542H77.4233V42H73.9653Z" fill="white"/>
<defs>
<linearGradient id="paint0_linear_1_1749" x1="0" y1="0" x2="92.6725" y2="62.4857" gradientUnits="userSpaceOnUse">
<stop stop-color="#26E5A1" stop-opacity="0"/>
<stop offset="0.297074" stop-color="#26E5A1" stop-opacity="0.1"/>
<stop offset="0.488574" stop-color="#26E5A1" stop-opacity="0.8"/>
<stop offset="0.699904" stop-color="#26E5A1" stop-opacity="0.1"/>
<stop offset="1" stop-color="#26E5A1" stop-opacity="0"/>
</linearGradient>
</defs>
</svg>
