<svg width="19" height="16" viewBox="0 0 19 16" fill="none" xmlns="http://www.w3.org/2000/svg">
<path fill-rule="evenodd" clip-rule="evenodd" d="M1.72744 6.69572C6.48702 4.61666 9.65554 3.23519 11.2466 2.56497C15.775 0.663727 16.7269 0.335455 17.3389 0.321777C17.4748 0.321777 17.774 0.349134 17.978 0.513269C18.1412 0.650049 18.182 0.827863 18.2092 0.964643C18.2364 1.10142 18.2636 1.38866 18.2364 1.60751C17.9916 4.20632 16.9309 10.5119 16.3869 13.4116C16.1558 14.6426 15.707 15.053 15.2718 15.094C14.3199 15.1761 13.5992 14.4648 12.6881 13.863C11.2466 12.9192 10.4443 12.331 9.04359 11.4009C7.42534 10.3341 8.47244 9.74591 9.39716 8.78845C9.64194 8.54225 13.8168 4.71241 13.8984 4.37046C13.912 4.32943 13.912 4.16529 13.8168 4.08322C13.7216 4.00115 13.5856 4.02851 13.4768 4.05587C13.3272 4.08322 11.0426 5.61516 6.59581 8.63799C5.94307 9.08936 5.35832 9.30821 4.82796 9.29453C4.24322 9.28086 3.12812 8.96626 2.28499 8.6927C1.26508 8.36443 0.449152 8.18662 0.517146 7.61214C0.557942 7.31123 0.965906 7.01031 1.72744 6.69572Z" fill="#50677D"/>
</svg>
