<svg width="30" height="38" viewBox="0 0 30 38" fill="none" xmlns="http://www.w3.org/2000/svg">
<path d="M28.083 26.2875H6.46038C6.80245 25.331 7.14581 24.347 7.48917 23.3466C9.41816 23.6478 11.6789 21.7438 14.2612 17.6619C14.9042 20.1191 16.1195 23.3083 18.1938 23.3667C19.3589 23.3996 20.5227 22.4174 21.72 20.3783C22.5931 21.8607 24.3922 23.3667 28.083 23.3667C28.3559 23.3667 28.6176 23.2128 28.8105 22.939C29.0034 22.6651 29.1118 22.2936 29.1118 21.9063C29.1118 21.519 29.0034 21.1475 28.8105 20.8736C28.6176 20.5997 28.3559 20.4459 28.083 20.4459C24.1698 20.4459 23.0124 18.5382 22.9391 17.505C22.9507 17.1915 22.8877 16.8817 22.7604 16.6251C22.6331 16.3686 22.4487 16.1802 22.2369 16.0902C22.0169 15.9963 21.7812 16.0079 21.5662 16.123C21.3512 16.2381 21.1689 16.4505 21.0474 16.7273C19.4952 20.1118 18.5551 20.4568 18.2285 20.4459C17.1663 20.4167 16.086 16.8824 15.7157 14.345C15.6761 14.0732 15.5829 13.823 15.4468 13.6238C15.3108 13.4245 15.1375 13.2844 14.9474 13.2198C14.7573 13.1553 14.5582 13.169 14.3733 13.2593C14.1885 13.3496 14.0256 13.5128 13.9037 13.7298C11.306 18.3556 9.56476 19.9128 8.48067 20.3163C9.57248 16.8715 10.3878 13.8466 10.9099 11.3C11.787 7.02097 11.8513 4.02893 11.1041 2.15412C10.7183 1.17199 9.90298 0 8.2672 0C6.20189 0 4.57254 2.77115 3.7958 7.60331C3.33413 10.4712 3.25826 13.6659 3.58747 16.3658C3.91669 19.0658 4.59955 21.03 5.59233 22.1965C5.11266 23.6059 4.62398 24.9823 4.14816 26.2875H1.33441C1.06156 26.2875 0.799883 26.4414 0.606947 26.7153C0.414011 26.9892 0.30562 27.3606 0.30562 27.748C0.30562 28.1353 0.414011 28.5068 0.606947 28.7806C0.799883 29.0545 1.06156 29.2084 1.33441 29.2084H3.05893C1.60319 33.042 0.471513 35.7146 0.453509 35.7584C0.380163 35.9228 0.330715 36.1064 0.308071 36.2984C0.285427 36.4904 0.290045 36.6868 0.321652 36.8762C0.353259 37.0656 0.411218 37.2441 0.492122 37.4013C0.573027 37.5584 0.675244 37.691 0.792767 37.7913C0.91029 37.8916 1.04075 37.9575 1.17647 37.9852C1.31219 38.0128 1.45044 38.0017 1.58309 37.9525C1.71575 37.9032 1.84012 37.8168 1.94892 37.6983C2.05771 37.5799 2.14872 37.4317 2.2166 37.2626C2.23589 37.2151 3.66592 33.8324 5.393 29.2084H28.083C28.3559 29.2084 28.6176 29.0545 28.8105 28.7806C29.0034 28.5068 29.1118 28.1353 29.1118 27.748C29.1118 27.3606 29.0034 26.9892 28.8105 26.7153C28.6176 26.4414 28.3559 26.2875 28.083 26.2875ZM5.80195 8.25319C6.31377 5.064 7.30527 2.92084 8.2672 2.92084C8.95263 2.92084 9.18025 3.26039 9.31271 3.59081C9.69851 4.56381 10.1512 8.00675 6.52725 19.3615C5.46502 17.3023 5.10366 12.5961 5.80195 8.25319Z" fill="#46525D"/>
</svg>
