<svg width="35" height="29" viewBox="0 0 35 29" fill="none" xmlns="http://www.w3.org/2000/svg">
<path d="M0.84375 20.9063L9.65704 12.093C10.014 11.736 10.4377 11.4529 10.9041 11.2597C11.3704 11.0666 11.8702 10.9671 12.375 10.9671C12.8798 10.9671 13.3796 11.0666 13.846 11.2597C14.3123 11.4529 14.736 11.736 15.093 12.093L23.9063 20.9063M21.3438 18.3438L23.7508 15.9367C24.1077 15.5798 24.5315 15.2966 24.9978 15.1035C25.4641 14.9103 25.964 14.8109 26.4688 14.8109C26.9735 14.8109 27.4734 14.9103 27.9397 15.1035C28.406 15.2966 28.8298 15.5798 29.1867 15.9367L34.1563 20.9063M3.40625 27.3125H31.5938C32.2734 27.3125 32.9251 27.0425 33.4057 26.562C33.8863 26.0814 34.1563 25.4296 34.1563 24.75V4.25C34.1563 3.57038 33.8863 2.9186 33.4057 2.43804C32.9251 1.95748 32.2734 1.6875 31.5938 1.6875H3.40625C2.72663 1.6875 2.07485 1.95748 1.59429 2.43804C1.11373 2.9186 0.84375 3.57038 0.84375 4.25V24.75C0.84375 25.4296 1.11373 26.0814 1.59429 26.562C2.07485 27.0425 2.72663 27.3125 3.40625 27.3125ZM21.3438 8.09375H21.3574V8.10742H21.3438V8.09375ZM21.9844 8.09375C21.9844 8.26365 21.9169 8.4266 21.7967 8.54674C21.6766 8.66688 21.5137 8.73438 21.3438 8.73438C21.1738 8.73438 21.0109 8.66688 20.8908 8.54674C20.7706 8.4266 20.7031 8.26365 20.7031 8.09375C20.7031 7.92385 20.7706 7.7609 20.8908 7.64076C21.0109 7.52062 21.1738 7.45313 21.3438 7.45313C21.5137 7.45313 21.6766 7.52062 21.7967 7.64076C21.9169 7.7609 21.9844 7.92385 21.9844 8.09375Z" stroke="#26E5A1" stroke-width="1.5" stroke-linecap="round" stroke-linejoin="round"/>
</svg>
