<svg width="16" height="16" viewBox="0 0 16 16" fill="none" xmlns="http://www.w3.org/2000/svg">
<path d="M6.35378 2.64628L11.3538 7.64628C11.4003 7.69271 11.4372 7.74786 11.4623 7.80856C11.4875 7.86926 11.5004 7.93432 11.5004 8.00003C11.5004 8.06573 11.4875 8.1308 11.4623 8.1915C11.4372 8.2522 11.4003 8.30734 11.3538 8.35378L6.35378 13.3538C6.25996 13.4476 6.13272 13.5003 6.00003 13.5003C5.86735 13.5003 5.7401 13.4476 5.64628 13.3538C5.55246 13.26 5.49976 13.1327 5.49976 13C5.49976 12.8673 5.55246 12.7401 5.64628 12.6463L10.2932 8.00003L5.64628 3.35378C5.59983 3.30732 5.56298 3.25217 5.53784 3.19147C5.5127 3.13078 5.49976 3.06572 5.49976 3.00003C5.49976 2.93433 5.5127 2.86928 5.53784 2.80858C5.56298 2.74788 5.59983 2.69273 5.64628 2.64628C5.69274 2.59982 5.74789 2.56297 5.80859 2.53783C5.86928 2.51269 5.93434 2.49975 6.00003 2.49975C6.06573 2.49975 6.13079 2.51269 6.19148 2.53783C6.25218 2.56297 6.30733 2.59982 6.35378 2.64628Z" fill="#465762"/>
<path d="M6.35378 2.64628L11.3538 7.64628C11.4003 7.69271 11.4372 7.74786 11.4623 7.80856C11.4875 7.86926 11.5004 7.93432 11.5004 8.00003C11.5004 8.06573 11.4875 8.1308 11.4623 8.1915C11.4372 8.2522 11.4003 8.30734 11.3538 8.35378L6.35378 13.3538C6.25996 13.4476 6.13272 13.5003 6.00003 13.5003C5.86735 13.5003 5.7401 13.4476 5.64628 13.3538C5.55246 13.26 5.49976 13.1327 5.49976 13C5.49976 12.8673 5.55246 12.7401 5.64628 12.6463L10.2932 8.00003L5.64628 3.35378C5.59983 3.30732 5.56298 3.25217 5.53784 3.19147C5.5127 3.13078 5.49976 3.06572 5.49976 3.00003C5.49976 2.93433 5.5127 2.86928 5.53784 2.80858C5.56298 2.74788 5.59983 2.69273 5.64628 2.64628C5.69274 2.59982 5.74789 2.56297 5.80859 2.53783C5.86928 2.51269 5.93434 2.49975 6.00003 2.49975C6.06573 2.49975 6.13079 2.51269 6.19148 2.53783C6.25218 2.56297 6.30733 2.59982 6.35378 2.64628Z" fill="white" fill-opacity="0.8"/>
</svg>
