<svg width="24" height="24" viewBox="0 0 24 24" fill="none" xmlns="http://www.w3.org/2000/svg">
<path d="M12.8803 2.25561C12.6731 2.23754 12.4645 2.26276 12.2675 2.32965C12.0706 2.39654 11.8898 2.50365 11.7365 2.64418C11.5831 2.78471 11.4607 2.95558 11.377 3.14595C11.2932 3.33631 11.25 3.54201 11.25 3.74999V7.5628C11.2474 7.91659 11.3711 8.25971 11.5987 8.53053C11.8264 8.80134 12.1432 8.98208 12.4922 9.0403C13.0498 9.13385 13.5696 9.38306 13.9917 9.7592C14.4138 10.1353 14.721 10.6231 14.8779 11.1663C15.0349 11.7094 15.0351 12.2859 14.8786 12.8292C14.7222 13.3725 14.4154 13.8605 13.9936 14.237C13.5718 14.6135 13.0522 14.8632 12.4947 14.9572C11.9372 15.0512 11.3644 14.9858 10.8425 14.7684C10.3206 14.551 9.87067 14.1906 9.54469 13.7287C9.2187 13.2667 9.02989 12.7221 9.00001 12.1575C8.96157 11.3869 9.11907 10.7512 9.46876 10.2581C9.67428 9.97143 9.77118 9.62101 9.74216 9.26947C9.71313 8.91792 9.56007 8.58815 9.31032 8.33905L6.72095 5.68874C6.57335 5.54113 6.39657 5.42596 6.20192 5.35058C6.00727 5.27521 5.79902 5.24129 5.59051 5.251C5.382 5.2607 5.17781 5.31382 4.991 5.40695C4.80419 5.50009 4.63888 5.63118 4.50563 5.79186C2.9428 7.66497 2.14206 10.0576 2.26261 12.4941C2.38315 14.9306 3.41616 17.2325 5.15626 18.9422C6.97575 20.7473 9.43697 21.7571 12 21.75H12.1397C14.6752 21.7068 17.0948 20.6803 18.8878 18.8871C20.6808 17.0939 21.7071 14.6742 21.75 12.1387C21.8203 7.04811 17.9241 2.70749 12.8803 2.25561ZM5.65501 6.74436L8.24345 9.38717V9.3928C7.85923 9.94417 7.61794 10.5823 7.54126 11.25H3.78376C3.93396 9.59256 4.58684 8.02055 5.65501 6.74436ZM3.7847 12.75H7.56282C7.71836 13.6715 8.15694 14.5217 8.81768 15.1826C9.47842 15.8435 10.3285 16.2823 11.25 16.4381V20.2162C9.32911 20.0407 7.53043 19.1977 6.16658 17.8337C4.80273 16.4697 3.95994 14.6709 3.7847 12.75ZM17.8256 17.8256C16.4671 19.1936 14.67 20.039 12.75 20.2134V16.4381C13.6191 16.2934 14.4259 15.8945 15.0684 15.2915C15.6827 14.7193 16.1246 13.9866 16.3442 13.1763C16.5638 12.366 16.5524 11.5104 16.3112 10.7063C16.07 9.90211 15.6087 9.18148 14.9794 8.62581C14.35 8.07015 13.5778 7.70161 12.75 7.56186V3.74999C17.0175 4.13249 20.3128 7.80749 20.25 12.1172C20.2205 14.264 19.3501 16.3137 17.8256 17.8256Z" fill="#465762"/>
<path d="M12.8803 2.25561C12.6731 2.23754 12.4645 2.26276 12.2675 2.32965C12.0706 2.39654 11.8898 2.50365 11.7365 2.64418C11.5831 2.78471 11.4607 2.95558 11.377 3.14595C11.2932 3.33631 11.25 3.54201 11.25 3.74999V7.5628C11.2474 7.91659 11.3711 8.25971 11.5987 8.53053C11.8264 8.80134 12.1432 8.98208 12.4922 9.0403C13.0498 9.13385 13.5696 9.38306 13.9917 9.7592C14.4138 10.1353 14.721 10.6231 14.8779 11.1663C15.0349 11.7094 15.0351 12.2859 14.8786 12.8292C14.7222 13.3725 14.4154 13.8605 13.9936 14.237C13.5718 14.6135 13.0522 14.8632 12.4947 14.9572C11.9372 15.0512 11.3644 14.9858 10.8425 14.7684C10.3206 14.551 9.87067 14.1906 9.54469 13.7287C9.2187 13.2667 9.02989 12.7221 9.00001 12.1575C8.96157 11.3869 9.11907 10.7512 9.46876 10.2581C9.67428 9.97143 9.77118 9.62101 9.74216 9.26947C9.71313 8.91792 9.56007 8.58815 9.31032 8.33905L6.72095 5.68874C6.57335 5.54113 6.39657 5.42596 6.20192 5.35058C6.00727 5.27521 5.79902 5.24129 5.59051 5.251C5.382 5.2607 5.17781 5.31382 4.991 5.40695C4.80419 5.50009 4.63888 5.63118 4.50563 5.79186C2.9428 7.66497 2.14206 10.0576 2.26261 12.4941C2.38315 14.9306 3.41616 17.2325 5.15626 18.9422C6.97575 20.7473 9.43697 21.7571 12 21.75H12.1397C14.6752 21.7068 17.0948 20.6803 18.8878 18.8871C20.6808 17.0939 21.7071 14.6742 21.75 12.1387C21.8203 7.04811 17.9241 2.70749 12.8803 2.25561ZM5.65501 6.74436L8.24345 9.38717V9.3928C7.85923 9.94417 7.61794 10.5823 7.54126 11.25H3.78376C3.93396 9.59256 4.58684 8.02055 5.65501 6.74436ZM3.7847 12.75H7.56282C7.71836 13.6715 8.15694 14.5217 8.81768 15.1826C9.47842 15.8435 10.3285 16.2823 11.25 16.4381V20.2162C9.32911 20.0407 7.53043 19.1977 6.16658 17.8337C4.80273 16.4697 3.95994 14.6709 3.7847 12.75ZM17.8256 17.8256C16.4671 19.1936 14.67 20.039 12.75 20.2134V16.4381C13.6191 16.2934 14.4259 15.8945 15.0684 15.2915C15.6827 14.7193 16.1246 13.9866 16.3442 13.1763C16.5638 12.366 16.5524 11.5104 16.3112 10.7063C16.07 9.90211 15.6087 9.18148 14.9794 8.62581C14.35 8.07015 13.5778 7.70161 12.75 7.56186V3.74999C17.0175 4.13249 20.3128 7.80749 20.25 12.1172C20.2205 14.264 19.3501 16.3137 17.8256 17.8256Z" fill="white" fill-opacity="0.8"/>
</svg>
