<svg width="912" height="954" viewBox="0 0 912 954" fill="none" xmlns="http://www.w3.org/2000/svg">
<g filter="url(#filter0_d_119_72)">
<mask id="mask0_119_72" style="mask-type:alpha" maskUnits="userSpaceOnUse" x="4" y="185" width="864" height="282">
<rect x="4" y="185" width="863.114" height="281.632" fill="url(#paint0_radial_119_72)"/>
</mask>
<g mask="url(#mask0_119_72)">
<path d="M491.48 292.139V222.366L556.972 218.75V288.661L491.48 292.139Z" fill="#0B0D0E"/>
<path d="M623.297 354.663V284.89L688.788 281.273V351.185L623.297 354.663Z" fill="#0B0D0E"/>
<path d="M359.693 369.284V299.511L425.185 295.895V365.806L359.693 369.284Z" fill="#0B0D0E"/>
<path d="M293.799 232.674V162.901L359.29 159.285V229.196L293.799 232.674Z" fill="#0B0D0E"/>
<path d="M-101.889 185L-101.889 462.684M-35.9971 185L-35.9971 462.684M29.8952 185L29.8952 462.684M95.7875 185V462.684M161.68 185V462.684M227.572 185V462.684M293.464 185V462.684M359.357 185L359.357 462.684M425.249 185L425.249 462.684M491.141 185L491.141 462.684M557.034 185L557.034 462.684M622.926 185L622.926 462.684M688.818 185V462.684M754.711 185V462.684M820.603 185V462.684M886.495 185V462.684M952.388 185V462.684M1018.28 185V462.684M1084.17 185V462.684M1150.06 185V462.684M-135.311 256.338L1150.41 186.367M-135.311 326.309L1150.41 256.338M-135.311 396.281L1150.41 326.309M-135.311 466.252L1150.41 396.281" stroke="#171E24" stroke-width="0.738936"/>
</g>
<g style="mix-blend-mode:overlay" filter="url(#filter1_f_119_72)">
<ellipse cx="516.203" cy="206.635" rx="173.078" ry="21.6348" fill="#26E5A1"/>
</g>
<g filter="url(#filter2_f_119_72)">
<ellipse cx="523.234" cy="458.682" rx="181.732" ry="7.57217" fill="url(#paint1_linear_119_72)"/>
</g>
</g>
<mask id="mask1_119_72" style="mask-type:alpha" maskUnits="userSpaceOnUse" x="4" y="417" width="864" height="301">
<rect width="863.114" height="299.85" transform="matrix(1 0 0 -1 4 717.141)" fill="url(#paint2_radial_119_72)"/>
</mask>
<g mask="url(#mask1_119_72)">
<path d="M491.48 612.279V682.052L556.972 685.668V615.757L491.48 612.279Z" fill="#0B0D0E"/>
<path d="M623.297 549.751V619.525L688.788 623.141V553.229L623.297 549.751Z" fill="#0B0D0E"/>
<path d="M359.693 535.134V604.907L425.185 608.523V538.612L359.693 535.134Z" fill="#0B0D0E"/>
<path d="M293.799 671.744V741.517L359.29 745.133V675.222L293.799 671.744Z" fill="#0B0D0E"/>
<path d="M-101.889 719.418L-101.889 441.734M-35.9971 719.418L-35.9971 441.734M29.8952 719.418L29.8952 441.734M95.7875 719.418V441.734M161.68 719.418V441.734M227.572 719.418V441.734M293.464 719.418V441.734M359.357 719.418L359.357 441.734M425.249 719.418L425.249 441.734M491.141 719.418L491.141 441.734M557.034 719.418L557.034 441.734M622.926 719.418L622.926 441.734M688.818 719.418V441.734M754.711 719.418V441.734M820.603 719.418V441.734M886.495 719.418V441.734M952.388 719.418V441.734M1018.28 719.418V441.734M1084.17 719.418V441.734M1150.06 719.418V441.734M-135.311 648.08L1150.41 718.051M-135.311 578.109L1150.41 648.08M-135.311 508.137L1150.41 578.109M-135.311 438.166L1150.41 508.137" stroke="#171E24" stroke-width="0.738936"/>
</g>
<g style="mix-blend-mode:overlay" filter="url(#filter3_f_119_72)">
<ellipse cx="173.078" cy="21.6348" rx="173.078" ry="21.6348" transform="matrix(1 0 0 -1 343.125 768.758)" fill="#26E5A1"/>
</g>
<g filter="url(#filter4_f_119_72)">
<ellipse cx="181.732" cy="7.57217" rx="181.732" ry="7.57217" transform="matrix(1 0 0 -1 341.502 502.648)" fill="url(#paint3_linear_119_72)"/>
</g>
<defs>
<filter id="filter0_d_119_72" x="0" y="185" width="871.113" height="289.621" filterUnits="userSpaceOnUse" color-interpolation-filters="sRGB">
<feFlood flood-opacity="0" result="BackgroundImageFix"/>
<feColorMatrix in="SourceAlpha" type="matrix" values="0 0 0 0 0 0 0 0 0 0 0 0 0 0 0 0 0 0 127 0" result="hardAlpha"/>
<feOffset dy="4"/>
<feGaussianBlur stdDeviation="2"/>
<feComposite in2="hardAlpha" operator="out"/>
<feColorMatrix type="matrix" values="0 0 0 0 0 0 0 0 0 0 0 0 0 0 0 0 0 0 0.25 0"/>
<feBlend mode="normal" in2="BackgroundImageFix" result="effect1_dropShadow_119_72"/>
<feBlend mode="normal" in="SourceGraphic" in2="effect1_dropShadow_119_72" result="shape"/>
</filter>
<filter id="filter1_f_119_72" x="158.391" y="0.266006" width="715.624" height="412.738" filterUnits="userSpaceOnUse" color-interpolation-filters="sRGB">
<feFlood flood-opacity="0" result="BackgroundImageFix"/>
<feBlend mode="normal" in="SourceGraphic" in2="BackgroundImageFix" result="shape"/>
<feGaussianBlur stdDeviation="92.367" result="effect1_foregroundBlur_119_72"/>
</filter>
<filter id="filter2_f_119_72" x="134.6" y="244.207" width="777.269" height="428.949" filterUnits="userSpaceOnUse" color-interpolation-filters="sRGB">
<feFlood flood-opacity="0" result="BackgroundImageFix"/>
<feBlend mode="normal" in="SourceGraphic" in2="BackgroundImageFix" result="shape"/>
<feGaussianBlur stdDeviation="103.451" result="effect1_foregroundBlur_119_72"/>
</filter>
<filter id="filter3_f_119_72" x="158.391" y="540.754" width="715.624" height="412.738" filterUnits="userSpaceOnUse" color-interpolation-filters="sRGB">
<feFlood flood-opacity="0" result="BackgroundImageFix"/>
<feBlend mode="normal" in="SourceGraphic" in2="BackgroundImageFix" result="shape"/>
<feGaussianBlur stdDeviation="92.367" result="effect1_foregroundBlur_119_72"/>
</filter>
<filter id="filter4_f_119_72" x="134.6" y="280.602" width="777.269" height="428.949" filterUnits="userSpaceOnUse" color-interpolation-filters="sRGB">
<feFlood flood-opacity="0" result="BackgroundImageFix"/>
<feBlend mode="normal" in="SourceGraphic" in2="BackgroundImageFix" result="shape"/>
<feGaussianBlur stdDeviation="103.451" result="effect1_foregroundBlur_119_72"/>
</filter>
<radialGradient id="paint0_radial_119_72" cx="0" cy="0" r="1" gradientUnits="userSpaceOnUse" gradientTransform="translate(506.914 379.333) rotate(-28.3475) scale(409.279 439.401)">
<stop offset="0.591697" stop-color="#D9D9D9"/>
<stop offset="1" stop-color="#D9D9D9" stop-opacity="0"/>
</radialGradient>
<linearGradient id="paint1_linear_119_72" x1="523.234" y1="456.978" x2="523.234" y2="462.373" gradientUnits="userSpaceOnUse">
<stop stop-color="#00FFF0"/>
<stop offset="1" stop-color="#00FFF0" stop-opacity="0"/>
</linearGradient>
<radialGradient id="paint2_radial_119_72" cx="0" cy="0" r="1" gradientUnits="userSpaceOnUse" gradientTransform="translate(511.644 316.419) rotate(-41.9958) scale(472.919 512.055)">
<stop offset="0.591697" stop-color="#D9D9D9"/>
<stop offset="1" stop-color="#D9D9D9" stop-opacity="0"/>
</radialGradient>
<linearGradient id="paint3_linear_119_72" x1="181.732" y1="5.86843" x2="181.732" y2="11.2636" gradientUnits="userSpaceOnUse">
<stop stop-color="#00FFF0"/>
<stop offset="1" stop-color="#00FFF0" stop-opacity="0"/>
</linearGradient>
</defs>
</svg>
