<svg width="559" height="290" viewBox="0 0 559 290" fill="none" xmlns="http://www.w3.org/2000/svg">
<mask id="mask0_1_1708" style="mask-type:alpha" maskUnits="userSpaceOnUse" x="-292" y="0" width="1321" height="290">
<rect x="1028.34" y="289.434" width="1319.75" height="288.694" transform="rotate(-180 1028.34 289.434)" fill="url(#paint0_radial_1_1708)"/>
</mask>
<g mask="url(#mask0_1_1708)">
<path d="M384.963 179.462V251.081L317.738 254.793V183.032L384.963 179.462Z" fill="#0B0D0E"/>
<path d="M182.053 118.427V190.046L114.828 193.758L114.828 121.997L182.053 118.427Z" fill="#0B0D0E"/>
<path d="M520.237 100.278V171.898L453.012 175.609V103.848L520.237 100.278Z" fill="#0B0D0E"/>
<path d="M587.872 240.501V312.12L520.648 315.832V244.071L587.872 240.501Z" fill="#0B0D0E"/>
<path d="M994.032 289.438L994.032 4.40552M926.397 289.438L926.397 4.40552M858.761 289.438L858.761 4.40552M791.125 289.437V4.40552M723.489 289.437V4.40552M655.853 289.437V4.40552M588.217 289.437V4.40552M520.581 289.437L520.581 4.40552M452.945 289.437L452.945 4.40552M385.309 289.437L385.31 4.40552M317.674 289.437L317.674 4.40552M250.038 289.437L250.038 4.40552M182.402 289.437V4.40552M114.766 289.437V4.40552M47.1301 289.437V4.40552M-20.5058 289.437V4.40552M-88.1416 289.437V4.40552M-155.778 289.437V4.40552M-223.413 289.437V4.40552M-291.049 289.437V4.40552M1028.34 216.212L-291.407 288.035M1028.34 144.389L-291.407 216.212M1028.34 72.5661L-291.407 144.389M1028.34 0.743226L-291.407 72.5661" stroke="#171E24" stroke-width="1.17834"/>
</g>
<defs>
<radialGradient id="paint0_radial_1_1708" cx="0" cy="0" r="1" gradientUnits="userSpaceOnUse" gradientTransform="translate(1688.21 289.434) rotate(90) scale(288.694 659.873)">
<stop stop-color="#D9D9D9"/>
<stop offset="1" stop-color="#D9D9D9" stop-opacity="0"/>
</radialGradient>
</defs>
</svg>
