<svg width="301" height="95" viewBox="0 0 301 95" fill="none" xmlns="http://www.w3.org/2000/svg">
<mask id="mask0_1_1385" style="mask-type:alpha" maskUnits="userSpaceOnUse" x="0" y="0" width="301" height="95">
<rect x="301" y="95" width="301" height="95" transform="rotate(-180 301 95)" fill="url(#paint0_radial_1_1385)"/>
</mask>
<g mask="url(#mask0_1_1385)">
<path d="M222.57 58.8125V82.3801L200.449 83.6016V59.9873L222.57 58.8125Z" fill="#0B0D0E"/>
<path d="M155.801 38.7266V62.2942L133.679 63.5156V39.9013L155.801 38.7266Z" fill="#0B0D0E"/>
<path d="M267.086 32.7539V56.3215L244.965 57.543V33.9287L267.086 32.7539Z" fill="#0B0D0E"/>
<path d="M289.344 78.8984V102.466L267.222 103.688V80.0732L289.344 78.8984Z" fill="#0B0D0E"/>
<path d="M422.996 95.0039L422.996 1.20905M400.74 95.0039L400.74 1.20905M378.483 95.0039L378.483 1.20905M356.226 95.0039V1.20905M333.969 95.0039V1.20905M311.712 95.0039V1.20905M289.456 95.0039V1.20905M267.199 95.0039L267.199 1.20905M244.942 95.0039L244.942 1.20905M222.685 95.0039L222.685 1.20905M200.428 95.0039L200.428 1.20905M178.172 95.0039L178.172 1.20905M155.915 95.0039V1.20905M133.658 95.0039V1.20905M111.401 95.0039V1.20905M89.1445 95.0039V1.20905M66.8877 95.0039V1.20905M44.6309 95.0039V1.20905M22.3741 95.0039V1.20905M0.11729 95.0039V1.20905M434.285 70.9077L-0.00053215 94.5423M434.285 47.2731L-0.00053215 70.9077M434.285 23.6385L-0.00053215 47.2731M434.285 0.00390148L-0.00053215 23.6385" stroke="#171E24"/>
</g>
<defs>
<radialGradient id="paint0_radial_1_1385" cx="0" cy="0" r="1" gradientUnits="userSpaceOnUse" gradientTransform="translate(301 95) rotate(90) scale(77 239.051)">
<stop stop-color="#D9D9D9"/>
<stop offset="1" stop-color="#D9D9D9" stop-opacity="0"/>
</radialGradient>
</defs>
</svg>
